<svg width="1197" height="1310" xmlns="http://www.w3.org/2000/svg" xmlns:xlink="http://www.w3.org/1999/xlink" xml:space="preserve" overflow="hidden"><g transform="translate(-3102 339)"><g><path d="M3646-237.5C3646-188.622 3606.38-149 3557.5-149 3508.62-149 3469-188.622 3469-237.5 3469-286.376 3508.62-326 3557.5-326 3606.38-326 3646-286.378 3646-237.5Z" fill="#66CC66" fill-rule="evenodd" fill-opacity="1"/><path d="M3947-234.5C3947-185.622 3907.38-146 3858.5-146 3809.62-146 3770-185.622 3770-234.5 3770-283.377 3809.62-323 3858.5-323 3907.38-323 3947-283.378 3947-234.5Z" fill="#66CC66" fill-rule="evenodd" fill-opacity="1"/><path d="M3797-249.5C3797-200.623 3757.38-161 3708.5-161 3659.62-161 3620-200.622 3620-249.5 3620-298.376 3659.62-338 3708.5-338 3757.38-338 3797-298.378 3797-249.5Z" fill="#66CC66" fill-rule="evenodd" fill-opacity="1"/><path d="M3705.16-223.979C3371.86-226.818 3101.18 44.1751 3104.02 377.661 3106.77 701.489 3371.19 966.234 3694.84 968.979 4028.15 971.82 4298.82 700.827 4295.98 367.34 4293.14 43.5112 4028.71-221.232 3705.16-223.979ZM3437.51 392.717C3445.74 402.847 3461.07 402.941 3469.4 392.904L3664.57 157.514C3673.08 147.193 3686.61 141.134 3700.8 141.134 3705.72 141.134 3710.55 141.891 3715.19 143.217 3733.07 148.614 3745.18 163.386 3746.12 180.335 3746.22 181.281 3746.22 182.132 3746.22 183.08L3746.22 369.045C3746.22 389.97 3772.33 399.438 3785.67 383.342L3912.44 230.519C3920.96 220.196 3934.49 214.137 3948.68 214.137 3948.68 214.137 3948.86 214.137 3948.96 214.137 3963.24 214.231 3976.77 220.481 3985.29 230.897L4038.36 296.42C4074.13 340.543 4145.46 315.263 4145.46 258.451 4145.46 258.451 4145.08 215.274 4144.42 180.238 4144.23 170.012 4158.23 166.984 4162.39 176.357 4190.3 239.797 4205.06 308.824 4205.06 380.217 4205.06 434.093 4196.64 486.74 4180.56 536.545 4173.18 559.459 4143.47 565.234 4128.33 546.583L3964.1 343.952C3955.96 333.82 3940.54 333.726 3932.21 343.763L3737.04 579.155C3728.52 589.474 3715 595.535 3700.8 595.535 3695.88 595.535 3691.06 594.776 3686.42 593.452 3668.54 588.055 3656.43 573.283 3655.49 556.334 3655.39 555.388 3655.39 554.535 3655.39 553.589L3655.39 367.624C3655.39 346.699 3629.28 337.229 3615.94 353.327L3489.17 506.15C3480.65 516.471 3467.12 522.532 3452.93 522.532 3452.93 522.532 3452.75 522.532 3452.65 522.532 3438.36 522.436 3424.83 516.187 3416.32 505.772L3363.25 440.249C3327.48 396.124 3256.15 421.406 3256.15 478.218L3256.15 585.971C3256.15 595.062 3243.66 597.807 3239.88 589.569 3210.36 524.709 3194.75 453.6 3194.75 380.122 3194.75 319.145 3205.44 259.87 3225.97 204.384 3234.11 182.323 3262.96 177.304 3277.82 195.578L3437.51 392.717Z" fill="#FF6666" fill-rule="evenodd" fill-opacity="1"/></g></g></svg>