<?xml version="1.0" encoding="UTF-8" standalone="no"?>
<!DOCTYPE svg PUBLIC "-//W3C//DTD SVG 1.1//EN" "http://www.w3.org/Graphics/SVG/1.1/DTD/svg11.dtd">
<svg width="100%" height="100%" viewBox="0 0 1197 1310" version="1.1" xmlns="http://www.w3.org/2000/svg" xmlns:xlink="http://www.w3.org/1999/xlink" xml:space="preserve" xmlns:serif="http://www.serif.com/" style="fill-rule:evenodd;clip-rule:evenodd;stroke-linejoin:round;stroke-miterlimit:2;">
    <g transform="matrix(7.990218,0,0,7.990218,-29814.166633,-2374.993604)">
        <g transform="matrix(1.862407,0,0,1.862407,2955.76947,41.380214)">
            <circle cx="444.28" cy="146.83" r="7.26" style="fill:rgb(102,204,102);"/>
            <circle cx="469.01" cy="147.07" r="7.26" style="fill:rgb(102,204,102);"/>
            <circle cx="456.64" cy="144.64" r="7.26" style="fill:rgb(102,204,102);"/>
        </g>
        <g transform="matrix(1.862407,0,0,1.862407,2955.76947,41.380214)">
            <path d="M456.99,147.07C435.09,146.88 417.29,164.68 417.48,186.58C417.66,207.85 435.04,225.23 456.31,225.41C478.21,225.6 496.01,207.8 495.82,185.9C495.64,164.63 478.26,147.25 456.99,147.07ZM437.08,184.71C438.82,186.85 442.08,186.87 443.84,184.75L454.32,172.13C454.88,171.45 455.77,171.05 456.7,171.05C457.02,171.05 457.34,171.1 457.65,171.19C458.82,171.55 459.62,172.52 459.68,173.63L459.68,186.02C459.68,187.39 461.4,188.01 462.28,186.96L470.61,176.92C471.17,176.24 472.06,175.84 472.99,175.84L473.01,175.84C473.95,175.84 474.84,176.26 475.4,176.94L478.89,181.24C481.24,184.14 485.93,182.48 485.93,178.74C485.93,178.74 485.91,175.9 485.86,173.6C485.85,172.92 486.77,172.73 487.04,173.35C488.87,177.51 489.84,182.05 489.84,186.73C489.84,190.28 489.29,193.74 488.22,197.03C487.74,198.52 485.78,198.88 484.8,197.66L476.33,187.21C474.59,185.07 471.33,185.05 469.57,187.17L459.09,199.8C458.53,200.48 457.64,200.88 456.71,200.88C456.39,200.88 456.07,200.83 455.76,200.74C454.59,200.38 453.79,199.41 453.73,198.3L453.73,185.91C453.73,184.54 452.01,183.92 451.13,184.97L442.8,195.01C442.24,195.69 441.35,196.09 440.42,196.09L440.4,196.09C439.46,196.09 438.57,195.67 438.01,194.99L434.52,190.69C432.17,187.79 427.48,189.45 427.48,193.19L427.48,200.26C427.48,200.86 426.66,201.04 426.41,200.5C424.47,196.24 423.44,191.57 423.44,186.74C423.44,182.72 424.15,178.82 425.51,175.16C426.04,173.73 427.94,173.43 428.9,174.62L437.08,184.71Z" style="fill:rgb(255,102,102);fill-rule:nonzero;"/>
        </g>
    </g>
</svg>
